/* XPM */
static char *result[] = {
/* columns rows colors chars-per-pixel */
"64 64 45 1 ",
"  c #FFC300",
". c #FFC301",
"X c #FFC302",
"o c #FFC401",
"O c #FFC404",
"+ c #FFC406",
"@ c #FFC905",
"# c #FFCE0A",
"$ c #FFCB1A",
"% c #FFD510",
"& c #FFDF15",
"* c #FFE91D",
"= c #FFDE21",
"- c #FFCF33",
"; c #FFD330",
": c #FFEF22",
"> c #FFF423",
", c #FFF425",
"< c #FFF428",
"1 c #FFF42E",
"2 c #FFE139",
"3 c #FFF334",
"4 c #FFD345",
"5 c #FFF540",
"6 c #FFF64E",
"7 c #FFF65F",
"8 c #FFE066",
"9 c #FFF86E",
"0 c #FFF878",
"q c #FFF983",
"w c #FFFA90",
"e c #FFFA9E",
"r c #FFFBA7",
"t c #FFFBA9",
"y c #FFFBAC",
"u c #FFFBB4",
"i c #FFFCC0",
"p c #FFFDCB",
"a c #FFFDD6",
"s c #FFFEE4",
"d c #FFFEEC",
"f c #FFFEF2",
"g c #FFFFFA",
"h c white",
"j c None",
/* pixels */
"jjjjjjjjjjjjjjjjjjjjjjjjjjjjjjjjjjjjjjjjjjjjjjjjjjjjjjjjjjjjjjjj",
"jjjjjjjjjjjjjjjjjjjjjjjjjjjjjjjjjjjjjjjjjjjjjjjjjjjjjjjjjjjjjjjj",
"jjjjjjjjjjjjjjjjjjjjjjjjjjjjjjjjjjjjjjjjjjjjjjjjjjjjjjjjjjjjjjjj",
"jjjjjjjjjjjjjjjjjjjjjjjjjjjjjjjjjjjjjjjjjjjjjjjjjjjjjjjjjjjjjjjj",
"jjjjjjjjjjjjjjjjjjjjjjjjjjjjjjjjjjjjjjjjjjjjjjjjjjjjjjjjjjjjjjjj",
"jjjjjjjjjjjjjjjjjjjjjjjjjjjjjjjjjjjjjjjjjjjjjjjjjjjjjjjjjjjjjjjj",
"jjjjjjjjjjjjjjjjjjjjjjjjjjjjjjjjjjjjjjjjjjjjjjjjjjjjjjjjjjjjjjjj",
"jjjjjjjjjjjjjjjjjjjj jjjjjjjjjjjjjjjjjjjjjjjjjjjjjjjjjjjjjjjjjjj",
"jjjjjjjjjjjjjjjjjjj .Ojjjjjjjjjjjjjjjjjjjjjjjjjjjjjjjjjjjjjjjjjj",
"jjjjjjjjjjjjjjjjjjjjX..jjjjjjjjjjjjjjjjjjjjjjjjjjjjjjjjjjjjjjjjj",
"jjjjjjjjjjjjjjjjjjjjjo.oooo  oo ooO jjjjjjjjjjjjjjjjjjjjjjjjjjjj",
"jjjjjjjjjjjjjjjjjjjjj ....@%&*:**&#..o+jjjjjjjjjjjjjjjjjjjjjjjjj",
"jjjjjjjjjjjj..jjjjj  .@%%&*>,,,,,>:*=$. jjjjjjjjjjjjjjjjjjjjjjjj",
"jjjjjjjjjjjjjOo jj .@&:>,,,,,,,,,,,,,32$ojjjjjj. jjjjjjjjjjjjjjj",
"jjjjjjjjjjjjjjO.oO.#*,,,,,>>>>>>>>>>>><2$4jjj o jjjjjjjjjjjjjjjj",
"jjjjjjjjjjjjjjj...%:,,>>,<<111367763,>><2;O.o +jjjjjjjjjjjjjjjjj",
"jjjjjjjjjjjjjjj+.@:,>>169qqwwwwettrw6<>>3$..Xjjjjjjjjjjjjjjjjjjj",
"jjjjjjjjjjjjjjj .=<>,6wrtyytttyttttte6,,<=#. jjjjjjjjjjjjjjjjjjj",
"jjjjjjjjjjjjjjj..*,>6etrrrrrtttttttrtq1>>>:*o  jjjjjjjjjjjjjjjjj",
"jjjjjjjjjjjjjjj @:>3wtryipputttrrrtuiu9651>,:&.   X jjjjjjjjjjjj",
"jjjjjjjjjjjjjjjjo:>6rrusghgditruiaafggdspw6<>>&...ojjjjjjjjjjjjj",
"jjjjjjjjjjjjjjjj8:,9tyshhhhhfiidghhhhhhhhgi7<>:%.. jjjjjjjjjjjjj",
"jjjjjjjjjjjjjj-4;:,9tighhhhhhdfhhhhhhhhhhhgi6>,*. jjjjjjjjjjjjjj",
"jjjjjjjjjjjjjo..@*,9tphhhhhhhhhhhhhhhhhhhhhdq<><#.jjjjjjjjjjjjjj",
"jjjjjjjjjjjj ..@&>3wtahhhhhhhhhhhhhhhhhhhhhgy3><%+jjjjjjjjjjjjjj",
"jjjjjjjjjjjj .@*,>7rrphhhhhhhhhhhhhhhhhhhhhhp5>,%+jjjjjjjjjjjjjj",
"jjjjjjjjjjj...&,><qyrighhhhhhhhhhhhhhhhhhhhhp7>,&ojjjjjjjjjjjjjj",
"jjjjjjjjjjjo.#:,>3wttyahhhhhhhhhhhhhhhhhhhhhi9<>>&ojjjjjjjjjjjjj",
"jjjjjjjjjjj..&,><9rttrighhhhhhhhhhhhhhhhhhhgue05,>%Xjjjjjjjjjjjj",
"jjjjjjjjjjj .*,>6ettrudhhhhhhhhhhhhhhhhhhhhgpttw5>*@.jjjjjjjjjjj",
"jjjjjjjjjjj .*,,0yttrahhhhhhhhhhhhhhhhhhhhhhfirtq1>&.jjjjjjjjjjj",
"jjjjjjjjjjj..*,1wtttyshhhhhhhhhhhhhhhhhhhhhhhsyte6>*@ jjjjjjjjjj",
"jjjjjjjjjjj .&>1wtttyshhhhhhhhhhhhhhhhhhhhhhhfurt7>>%.jjjjjjjjjj",
"jjjjjjjjjjjjo#:<qyttrphhhhhhhhhhhhhhhhhhhhhhhgirt9>,&Ojjjjjjjjjj",
"jjjjjjjjjjjj .&>7rttrushhhhhhhhhhhhhhhhhhhhhhgirt7>,&ojjjjjjjjjj",
"jjjjjjjjjjjjj .&10tttruafghhhhhhhhhhhhhhhhhhhdute5>,&ojjjjjjjjjj",
"jjjjjjjjjjjjjjO.=39ettrtushhhhhhhhhhhhhhhhhhhatt0<>,& jjjjjjjjjj",
"jjjjjjjjjjjjjj-.2<<7rttryshhhhhhhhhhhhhhhhhhsutw5>,,%Xjjjjjjjjjj",
"jjjjjjjjjjjjjjO$3>>5etttyshhhhhhhhhhhhhhhhgsurt0,,,:#Ojjjjjjjjjj",
"jjjjjjjjjjjjjjo$3>>5etttrphhhhhhhfdghhhhgspyrtt7>,,&. jjjjjjjjjj",
"jjjjjjjjjjjjjjo$<>>1wtttrudhhhhhhayiaaapuyrrtte5>,*@.+jjjjjjjjjj",
"jjjjjjjjjjjjjjX$3>,,9ttttridhhhhsurrrtrrrrtttt0<,*#. jjjjjjjjjjj",
"jjjjjjjjjjjjjj @2,,>5ettttruasspurr07wttttttyw5:&@..Ojjjjjjjjjjj",
"jjjjjjjjjjjjjjj ;3>,,7rttttrtyyrtr9<>5qrtttr02&#...ojjjjjjjjjjjj",
"jjjjjjjjjjjjjjjO.21>><7etttttttrw7<>,>16907;$@.... jjjjjjjjjjjjj",
"jjjjjjjjjjjjjjj+..23>>,50wrrreq73>>,,,>>,:@.$$..O jjjjjjjjjjjjjj",
"jjjjjjjjjjjjjjjjo..;531<362665<>>,,,,,,,>%.XX@.. jjjjjjjjjjjjjjj",
"jjjjjjjjjjjjjjjjj Xo$;22;$o#*>>,,,,,,,,>&.ojj. .ojjjjjjjjjjjjjjj",
"jjjjjjjjjjjjjjjjjjjjj  + jj.@&:,,,,,,>*%.. jjjj   jjjjjjjjjjjjjj",
"jjjjjjjjjjjjjjjjjjjjjjjjjjjjo.#&*::*&%@. +jjjjjjj Xjjjjjjjjjjjjj",
"jjjjjjjjjjjjjjjjjjjjjjjjjjjjjO .@@@@.. .jjjjjjjjjjj jjjjjjjjjjjj",
"jjjjjjjjjjjjjjjjjjjjjjjjjjjjjjj     +jjjjjjjjjjjjjjjjjjjjjjjjjjj",
"jjjjjjjjjjjjjjjjjjjjjjjjjjjjjjjjjjjjjjjjjjjjjjjjjjjjjjjjjjjjjjjj",
"jjjjjjjjjjjjjjjjjjjjjjjjjjjjjjjjjjjjjjjjjjjjjjjjjjjjjjjjjjjjjjjj",
"jjjjjjjjjjjjjjjjjjjjjjjjjjjjjjjjjjjjjjjjjjjjjjjjjjjjjjjjjjjjjjjj",
"jjjjjjjjjjjjjjjjjjjjjjjjjjjjjjjjjjjjjjjjjjjjjjjjjjjjjjjjjjjjjjjj",
"jjjjjjjjjjjjjjjjjjjjjjjjjjjjjjjjjjjjjjjjjjjjjjjjjjjjjjjjjjjjjjjj",
"jjjjjjjjjjjjjjjjjjjjjjjjjjjjjjjjjjjjjjjjjjjjjjjjjjjjjjjjjjjjjjjj",
"jjjjjjjjjjjjjjjjjjjjjjjjjjjjjjjjjjjjjjjjjjjjjjjjjjjjjjjjjjjjjjjj",
"jjjjjjjjjjjjjjjjjjjjjjjjjjjjjjjjjjjjjjjjjjjjjjjjjjjjjjjjjjjjjjjj",
"jjjjjjjjjjjjjjjjjjjjjjjjjjjjjjjjjjjjjjjjjjjjjjjjjjjjjjjjjjjjjjjj",
"jjjjjjjjjjjjjjjjjjjjjjjjjjjjjjjjjjjjjjjjjjjjjjjjjjjjjjjjjjjjjjjj",
"jjjjjjjjjjjjjjjjjjjjjjjjjjjjjjjjjjjjjjjjjjjjjjjjjjjjjjjjjjjjjjjj",
"jjjjjjjjjjjjjjjjjjjjjjjjjjjjjjjjjjjjjjjjjjjjjjjjjjjjjjjjjjjjjjjj"
};
