/* XPM */
static char *result[] = {
/* columns rows colors chars-per-pixel */
"64 64 76 1 ",
"  c #1B1B07",
". c #444306",
"X c #5F5C05",
"o c #4B4B4B",
"O c #4B4B4C",
"+ c #4C4C4C",
"@ c #4C4C4D",
"# c gray30",
"$ c #4E4E4E",
"% c #595947",
"& c #535353",
"* c #6D6D5B",
"= c #626262",
"- c gray42",
"; c #727271",
": c #767676",
"> c #7C7C7B",
", c gray50",
"< c #8D8905",
"1 c #A5A004",
"2 c #BABA1D",
"3 c #BABA1E",
"4 c #C5BC02",
"5 c #C6BC02",
"6 c #C7BD02",
"7 c #C8BE02",
"8 c #CDC302",
"9 c #CDC502",
"0 c #D5CD01",
"q c #DBD401",
"w c #E3DC02",
"e c #E8E102",
"r c #EAE402",
"t c #EEE703",
"y c #EEE801",
"u c #EFE803",
"i c #E0E00E",
"p c #F1EB02",
"a c #FAF701",
"s c yellow",
"d c #FEFE01",
"f c #FAFA07",
"g c #F7F60A",
"h c #ECEC1B",
"j c #F1F115",
"k c #C4C427",
"l c #CCCC2F",
"z c #D8D83A",
"x c #E1E12E",
"c c #AEAE5D",
"v c #B9B953",
"b c #80806E",
"n c #888877",
"m c #A0A06D",
"M c #B6B669",
"N c #ADAD7C",
"B c #C3C345",
"V c #D1D145",
"C c #C9C951",
"Z c #C2C25C",
"A c #848484",
"S c #878789",
"D c #898988",
"F c #888889",
"G c #8D8D8D",
"H c #919188",
"J c #929292",
"K c #979797",
"L c #9D9D93",
"P c gray60",
"I c #98989A",
"U c #99999A",
"Y c #98989B",
"T c #9A9A9A",
"R c #A1A18D",
"E c None",
/* pixels */
"EEEEEEEEEEEEEEEEEEEEEEEEEEEEEEEEEEEEEEEEEEEEEEEEEEEEEEEEEEEEEEEE",
"EEEEEEEEEEEEEEEEEEEEEEEEEEEEEEEEEEEEEEEEEEEEEEEEEEEEEEEEEEEEEEEE",
"EEEEEEEEEEEEEEEEEEEEEEEEEEEEEEEEEEEEEEEEEEEEEEEEEEEEEEEEEEEEEEEE",
"EEEEEEEEEEEEEEEEEEEEEEEEEEE5EEEE6EEEEEEEEEEEEEEEEEEEEEEEEEEEEEEE",
"EEEEEEEEEEEEEEEEEEEEEEEEEE88Eya745EEEEEEEEEEEEEEEEEEEEEEEEEEEEEE",
"EEEEEEEEEEEEEEEEEEEEEEEEE6440uu048EEEEEEEEEEEEEEEEEEEEEEEEEEEEEE",
"EEEEEEEEEEEEEEEEEEEEEEEEew09rppe90wuEEEEEEEEEEEEEEEEEEEEEEEEEEEE",
"EEEEEEEEEEEEEEEEEEEEEEEEyuure<1uruuaEEEEEEEEEEEEEEEEEEEEEEEEEEEE",
"EEEEEEEEEEEEEEEEEEEEEEEEtuup9 .euuutEEEEEEEEEEEEEEEEEEEEEEEEEEEE",
"EEEEEEEEEEEEEEEEEEEEEsay8ruurX<puuu8yasEEEEEEEEEEEEEEEEEEEEEEEEE",
"EEEEEEEEEEEEEEEEEEssssd04wuuu40puue4wssssEEEEEEEEEEEEEEEEEEEEEEE",
"EEEEEEEEEEEEEEEEsssdsssp00000000000qgssssssEEEEEEEEEEEEEEEEEEEEE",
"EEEEEEEEEEEEEEEassssssssfpeqq0qqwrgdsssssssssEEEEEEEEEEEEEEEEEEE",
"EEEEEEEEEEEEEEsssssssssssssdfggfdsdsssssssssdsEEEEEEEEEEEEEEEEEE",
"EEEEEEEEEEEEEsssssssssssgxCMNNNNMVxgsssssssssssEEEEEEEEEEEEEEEEE",
"EEEEEEEEEEEEssssssssssjCNLYYYYYPYYLNVgssssssssdEEEEEEEEEEEEEEEEE",
"EEEEEEEEEEEEssssssssfVRYYPPPPPPPPPPPPNxdssssssssEEEEEEEEEEEEEEEE",
"EEEEEEEEEEEssssssssjMPIPPPPPPPPPPPPPPULCfssssssssEEEEEEEEEEEEEEE",
"EEEEEEEEEEEdssssssjMYPPPPPPPPPPPPPPPPPIPZfsssssssEEEEEEEEEEEEEEE",
"EEEEEEEEEEsssssssgMYPPPPPPPPPPPPPPPPPPPPPCdssssssEEEEEEEEEEEEEEE",
"EEEEEEEEEEssssssdZIPPPPPPPPPPPPPPPPPPPPPULzssssssaEEEEEEEEEEEEEE",
"EEEEEEEEEEssssssxLUPPPPPPPPPPPPPPPPPPPPPIYNjssssssEEEEEEEEEEEEEE",
"EEEEEEEEEEsssssfMYPPPPPPPPPPPPPPPPPPPPPPPPYCssssssEEEEEEEEEEEEEE",
"EEEEEEEEEEsssssxLPPPPPPPPPPPPPPPPPPPPPPPPIYNjsssssEEEEEEEEEEEEEE",
"EEEEEEEEEEsssssZYPPPPPPPPPPPPPPPPPPPPPPPPPIIzsssssEEEEEEEEEEEEEE",
"EEEEEEEEEEssssgNYPPPPPPPPPPPPPPPPPPPPPPPPPIYZdssssEEEEEEEEEEEEEE",
"EEEEEEEEEEsssshRUPPPPPPPPPPPPPPPPPPPPPPPPPPYNgssssEEEEEEEEEEEEEE",
"EEEEEEEEEEsssdxTPPPPPPPPPPPPPPPPPPPPPPPPPPPPRjssssEEEEEEEEEEEEEE",
"EEEEEEEEEEsssszKKKKKKKKKKKKKKPPKKKKKKKKKKKKKRhssssEEEEEEEEEEEEEE",
"EEEEEEEEEEssssk=============-JD=============*issssEEEEEEEEEEEEEE",
"EEEEEEEEEEssss2O+++++++++++o&G>++++++++++++O%issssEEEEEEEEEEEEEE",
"EEEEEEEEEEssss3#############&G>############@%issssEEEEEEEEEEEEEE",
"EEEEEEEEEEssss3#############&G>############@%issssEEEEEEEEEEEEEE",
"EEEEEEEEEEssss3#$$$$$$$$$$$$&J,$$$$$$$$$$$$#%issssEEEEEEEEEEEEEE",
"EEEEEEEEEEssssl,,,,,,,,,,,,,DKKA,,,,,,,,,,,,nhssssEEEEEEEEEEEEEE",
"EEEEEEEEEEsssszTTTTTTTTTTTTTTPPTTTTTTTTTTTTTRhssssEEEEEEEEEEEEEE",
"EEEEEEEEEEsssszPPPPPPPPPPPPPPPPPPPPPPPPPPPPURhssssEEEEEEEEEEEEEE",
"EEEEEEEEEEsssszPPPPPPPPPPPPPPPPPPPPPPPPPPPPURhssssEEEEEEEEEEEEEE",
"EEEEEEEEEEsssszPPPPPPPPPPPPPPPPPPPPPPPPPPPPURhssssEEEEEEEEEEEEEE",
"EEEEEEEEEEsssszPPPPPPPPPPPPPPPPPPPPPPPPPPPPURhssssEEEEEEEEEEEEEE",
"EEEEEEEEEEsssszPPPPPPPPPPPPPPPPPPPPPPPPPPPPURhssssEEEEEEEEEEEEEE",
"EEEEEEEEEEsssszPPPPPPPPPPPPPPPPPPPPPPPPPPPPURhssssEEEEEEEEEEEEEE",
"EEEEEEEEEEsssszPPPPPPPPPPPPPPPPPPPPPPPPPPPPURhssssEEEEEEEEEEEEEE",
"EEEEEEEEEEsssszUPPPPPPPPPPPPPPPPPPPPPPPPPPPURhssssEEEEEEEEEEEEEE",
"EEEEEEEEEEssssk-------------;KG-------------;issssEEEEEEEEEEEEEE",
"EEEEEEEEEEssss2O+++++++++++o&G>++++++++++++o%issssEEEEEEEEEEEEEE",
"EEEEEEEEEEssss3#############&G>############@%issssEEEEEEEEEEEEEE",
"EEEEEEEEEEssss3#############&G>############@%issssEEEEEEEEEEEEEE",
"EEEEEEEEEEssss2+++++++++++++&G,#+++++++++++O%issssEEEEEEEEEEEEEE",
"EEEEEEEEEEssssl:::::::::::::,KJ>::::::::::::bhssssEEEEEEEEEEEEEE",
"EEEEEEEEEEsssszTTTTTTTTTTTTTTPPTTTTTTTTTTTTTRhssssEEEEEEEEEEEEEE",
"EEEEEEEEEEsssszPPPPPPPPPPPPPPPPPPPPPPPPPPPPURhssssEEEEEEEEEEEEEE",
"EEEEEEEEEEsssszPPPPPPPPPPPPPPPPPPPPPPPPPPPPURhssssEEEEEEEEEEEEEE",
"EEEEEEEEEEsssszUPPTTTTTTTTTTTTTTTTTTTTTTTTPURhssssEEEEEEEEEEEEEE",
"EEEEEDDDFcBBBBMGDSAAAAAAAAAAAAAAAAAAAAAAAASDHvBBBBmFDDFEEEEEEEEE",
"EEEEDDDDDSSSSSSDAA,>>::;;;;;;;;;;;;:::>>,AASDSSSSSDDDDDEEEEEEEEE",
"EEEEDDDDDDDDDDDDDDDDDDDSAAAAAAAAAAASDDDDDDDDDDDDDDDDDDDEEEEEEEEE",
"EEEEDDDDDDDDDDDDDDDDDDDDDDDDDDDDDDDDDDDDDDDDDDDDDDDDDDDEEEEEEEEE",
"EEEEDDDDDDDDDDDDDDDDDDDDDDDDDDDDDDDDDDDDDDDDDDDDDDDDDDDEEEEEEEEE",
"EEEEEDDDDDDDDDDDDDDDDDDDDDDDDDDDDDDDDDDDDDDDDDDDDDDDDDDEEEEEEEEE",
"EEEEEEEEEEEEEEEEEEEEEEEEEEEEEEEEEEEEEEEEEEEEEEEEEEEEEEEEEEEEEEEE",
"EEEEEEEEEEEEEEEEEEEEEEEEEEEEEEEEEEEEEEEEEEEEEEEEEEEEEEEEEEEEEEEE",
"EEEEEEEEEEEEEEEEEEEEEEEEEEEEEEEEEEEEEEEEEEEEEEEEEEEEEEEEEEEEEEEE",
"EEEEEEEEEEEEEEEEEEEEEEEEEEEEEEEEEEEEEEEEEEEEEEEEEEEEEEEEEEEEEEEE"
};
