/* XPM */
static char *result[] = {
/* columns rows colors chars-per-pixel */
"64 64 234 2 ",
"   c #D36A07",
".  c #D67009",
"X  c #D9750B",
"o  c #D9770C",
"O  c #DB7B0E",
"+  c #DE8010",
"@  c #DA9019",
"#  c #DF951A",
"$  c #D9911D",
"%  c #DF961D",
"&  c #FC9C0A",
"*  c #FC9E0C",
"=  c #FC9F0E",
"-  c #E08512",
";  c #E38A14",
":  c #E48D15",
">  c #E58F16",
",  c #E39015",
"<  c #E79317",
"1  c #E49416",
"2  c #E49717",
"3  c #E5911C",
"4  c #E9971A",
"5  c #E3991C",
"6  c #E69C1C",
"7  c #EA9B1A",
"8  c #EA9E1C",
"9  c #EB9E1E",
"0  c #FD9E10",
"q  c #FCA00F",
"w  c #EFA715",
"e  c #E9A11E",
"r  c #ECA11F",
"t  c #FDA212",
"y  c #F9A115",
"u  c #FCA515",
"i  c #F0A31D",
"p  c #F2A71F",
"a  c #F3A81F",
"s  c #FBAA1B",
"d  c #FCA818",
"f  c #FDAC1D",
"g  c #F8B91A",
"h  c #DE9D23",
"j  c #D59C2A",
"k  c #D29C2E",
"l  c #DA9E28",
"z  c #E79E2B",
"x  c #DAA12C",
"c  c #D3A235",
"v  c #DDA833",
"b  c #D9A937",
"n  c #DCB03E",
"m  c #E7A122",
"M  c #EDA422",
"N  c #E8A626",
"B  c #EFA724",
"V  c #EBAC2D",
"C  c #F6AB20",
"Z  c #F0A926",
"A  c #F1AE27",
"S  c #FDAF21",
"D  c #FBB222",
"F  c #FCB020",
"G  c #FDB020",
"H  c #FDB223",
"J  c #FCB324",
"K  c #FDB424",
"L  c #FDB525",
"P  c #FCB627",
"I  c #FDB727",
"U  c #FEB925",
"Y  c #FEBE27",
"T  c #F3B12A",
"R  c #F4B72A",
"E  c #F0B42E",
"W  c #FDB22A",
"Q  c #FDBA2A",
"!  c #FCBA2B",
"~  c #FEBA2B",
"^  c #E2AB31",
"/  c #E7AA34",
"(  c #E4AF37",
")  c #EAAB32",
"_  c #E6AB3A",
"`  c #EBAB39",
"'  c #EEB433",
"]  c #EAB538",
"[  c #F5BF37",
"{  c #FDBD30",
"}  c #FDBA34",
"|  c #F0BA38",
" . c #FDBF3C",
".. c #FFC71A",
"X. c #FCC321",
"o. c #FFC820",
"O. c #FFC924",
"+. c #FEC42D",
"@. c #FFCC2B",
"#. c #FEC236",
"$. c #FAC736",
"%. c #FFCF31",
"&. c #FEC73A",
"*. c #FDCB3E",
"=. c #FFD237",
"-. c #FFD53D",
";. c #E1B743",
":. c #EEB540",
">. c #E7BF45",
",. c #ECBB41",
"<. c #ECBA4A",
"1. c #F1BD43",
"2. c #F0B64E",
"3. c #E2BD51",
"4. c #EEC147",
"5. c #EBC84B",
"6. c #F2C040",
"7. c #F2C340",
"8. c #F4C641",
"9. c #F5C647",
"0. c #FCC345",
"q. c #F5CB45",
"w. c #FECF43",
"e. c #F3C14D",
"r. c #F7CB4B",
"t. c #F2C94C",
"y. c #F5CC4E",
"u. c #FED347",
"i. c #FFDC46",
"p. c #F5D249",
"a. c #FED54B",
"s. c #FBD44D",
"d. c #FFD84E",
"f. c #E9C657",
"g. c #EDC35D",
"h. c #EFCF5B",
"j. c #F7C651",
"k. c #F5CE51",
"l. c #F4C956",
"z. c #FDCB51",
"x. c #F2C858",
"c. c #F7CA5C",
"v. c #F6D054",
"b. c #F7D257",
"n. c #F0D555",
"m. c #F9D051",
"M. c #FBD455",
"N. c #F8DB52",
"B. c #FFDB51",
"V. c #FEDD54",
"C. c #F8D45A",
"Z. c #FCD759",
"A. c #F9D15F",
"S. c #F9D75D",
"D. c #F9D95F",
"F. c #FDD95D",
"G. c #FFE04F",
"H. c #FFE056",
"J. c #FFE257",
"K. c #FFE558",
"L. c #FFE65B",
"P. c #FEE45C",
"I. c #FFE75E",
"U. c #ECC667",
"Y. c #F1CC64",
"T. c #F1D267",
"R. c #F7D465",
"E. c #FADA62",
"W. c #FADE61",
"Q. c #FEDD61",
"!. c #FADC65",
"~. c #FBDE67",
"^. c #F8DC6E",
"/. c #F9D671",
"(. c #F5D97C",
"). c #F8DC78",
"_. c #F8E461",
"`. c #FFE066",
"'. c #FFE960",
"]. c #FFEC63",
"[. c #FFE967",
"{. c #FFED64",
"}. c #FFEF66",
"|. c #FCE069",
" X c #FFE26A",
".X c #FCE16D",
"XX c #FCE56E",
"oX c #FFE46E",
"OX c #FFF364",
"+X c #FFF665",
"@X c #FFF26A",
"#X c #FFF46C",
"$X c #FFF66E",
"%X c #FCE371",
"&X c #FCE674",
"*X c #FFEB71",
"=X c #FCE77E",
"-X c #FEE978",
";X c #FBE97D",
":X c #FEEB7C",
">X c #FFF177",
",X c #FFF871",
"<X c #FFFA75",
"1X c #F6DE85",
"2X c #FAE480",
"3X c #FAE583",
"4X c #FAE184",
"5X c #F9E485",
"6X c #FCE981",
"7X c #FEEE81",
"8X c #FEEC87",
"9X c #FDEA8D",
"0X c #FDEF8E",
"qX c #FFF085",
"wX c #FFF980",
"eX c #FFF188",
"rX c #FFF38B",
"tX c #FFF78A",
"yX c #FFF193",
"uX c #FFFA90",
"iX c #FFF998",
"pX c #FFF8A0",
"aX c #FFFAAA",
"sX c #FFF6B4",
"dX c #FFFCB3",
"fX c #FEF7BC",
"gX c #FFF8BA",
"hX c #FFF9BD",
"jX c #FFF9C0",
"kX c #FFFBC1",
"lX c #FFFAC2",
"zX c #FFFAC3",
"xX c #FFFCC9",
"cX c None",
/* pixels */
"cXcXcXcXcXcXcXcXcXcXcXcXcXcXcXcXcXcXcXcXcXcXcXcXcXcXgXhXlXzXkXkXkXkXzXlXhXgXcXcXcXcXcXcXcXcXcXcXcXcXcXcXcXcXcXcXcXcXcXcXcXcXcXcX",
"cXcXcXcXcXcXcXcXcXcXcXcXcXcXcXcXcXcXcXcXcXcXsXfXjXaXpXiXuXtXtXtXtXuXiXpXaXdXkXzXfXsXcXcXcXcXcXcXcXcXcXcXcXcXcXcXcXcXcXcXcXcXcXcX",
"cXcXcXcXcXcXcXcXcXcXcXcXcXcXcXcXcXcXcXcX0X;X>X7X>X@X}.@X@X@X@X#X#X#X$X$X,X<XwXuXaXkXzXfXcXcXcXcXcXcXcXcXcXcXcXcXcXcXcXcXcXcXcXcX",
"cXcXcXcXcXcXcXcXcXcXcXcXcXcXcXcXcX1X=X*X].].].].{.}.}.}.}.@X@X@X#X#X$X$X$X,X,X,X,X<XuXdXxXlXsXcXcXcXcXcXcXcXcXcXcXcXcXcXcXcXcXcX",
"cXcXcXcXcXcXcXcXcXcXcXcXcXcXcXcX2XXXI.I.'.'.'.].].].{.}.}.}.}.@X@X@X#X#X#X$X$X,X,X,X,X<XwXaXxXlXcXcXcXcXcXcXcXcXcXcXcXcXcXcXcXcX",
"cXcXcXcXcXcXcXcXcXcXcXcXcXcX5XXXP.P.P.I.I.I.'.'.'.].].{.}.}.}.@X@X@X@X#X#X#X#X$X$X,X,X,X,X<XwXdXxXhXcXcXcXcXcXcXcXcXcXcXcXcXcXcX",
"cXcXcXcXcXcXcXcXcXcXcXcXcX=XP.J.J.P.P.P.P.I.I.I.'.'.P.N.k.5.>.>.>.>.5.n.W.[.#X$X$X$X$X,X,X,X,X<XuXkXjXcXcXcXcXcXcXcXcXcXcXcXcXcX",
"cXcXcXcXcXcXcXcXcXcXcX1X^.H.H.H.J.J.J.P.P.I.P.N.4.( x j j j x x x x j j j x n 5._.#X$X$X$X$X,X,X,XwXdXxXsXcXcXcXcXcXcXcXcXcXcXcX",
"cXcXcXcXcXcXcXcXcXcX(.E.V.V.V.H.H.H.J.J.J.y.( l l v ] ,.4.t.k.k.v.v.k.t.4.;.b k k n n.@X$X$X$X$X,X,X<XpXxXgXcXcXcXcXcXcXcXcXcXcX",
"cXcXcXcXcXcXcXcXcX(.F.B.B.B.V.V.V.H.H.y.^ l ^ ,.t.k.v.b.C.C.S.S.S.D.W.W.W.W.D.h.>.b k b n.@X#X$X$X$X,X,XiXxXgXcXcXcXcXcXcXcXcXcX",
"cXcXcXcXcXcXcXcX(.Z.d.d.d.B.B.B.V.N.] x ( 4.y.v.b.b.b.C.C.C.!..X%X.XW.!.~.|.|.|.|.E.f.n k ;._.#X#X$X$X$X$XiXxXgXcXcXcXcXcXcXcXcX",
"cXcXcXcXcXcXcXU.b.a.a.d.d.d.d.V.q.^ ^ 4.k.b.b.b.C.C.S.S.S.6.S.wXwXyX|.~.|.|..XXXXXXXXX!.f.c c n.@X#X#X#X$X$XiXxXsXcXcXcXcXcXcXcX",
"cXcXcXcXcXcXcXl.u.u.a.a.a.d.B.7.^ ,.y.b.b.C.C.C.S.S.D.E.S.' p.+X+XrX.X.X.XXXXXXX&X&X&X-X&XR.;.k 5.@X@X#X#X#X$XpXxXcXcXcXcXcXcXcX",
"cXcXcXcXcXcXx.u.u.u.u.u.a.d.7.^ 4.b.C.C.S.S.S.D.E.E.!.!.E.' p.+X+XrX%X%X%X%X&X&X&X-X-X-X:X:X%X3.c >.}.@X@X#X#X$XdXjXcXcXcXcXcXcX",
"cXcXcXcXcXg.w.w.w.u.u.u.d.7.( t.S.S.S.D.E.E.E.!.!.~.~.~.!.| p.+X+XrX&X%X&X&X&X-X-X-X:X:X:X:X7X&Xf.c >.}.@X@X@X@X>XkXhXcXcXcXcXcX",
"cXcXcXcXcX9.w.w.w.w.w.a.q.] k.D.E.E.E.!.!.~.~.~.|.|.%X-X6X!.L.+X+XtXyX9X8X:X-X:X:X:X:X7X7X7X7XqX;Xf.c 5.}.}.@X@X@XtXxXcXcXcXcXcX",
"cXcXcXcX<.*.*.w.w.w.u.p.| v.!.~.~.~.|.|.|.|..X.X.X&X>X>X#X#XOXOXOX+X,XwXuXpXyX7X7X7X7X7XqXqXqXeXeX6Xf.c n.}.}.}.}.@XaXlXcXcXcXcX",
"cXcXcX) 7.*.*.*.*.w.s.6.k.`.`. X X X XoXoXoX.X|.*X@XOXOXOXOXOXOXOXOXOXOXOX#XtXpXyXqXqXqXeXeXeXrXrXrX6X3.b _.}.}.}.}.>XkXsXcXcXcX",
"cXcXcX/ &.&.*.*.*.a.q.q.`. X X X X XoXoXoX|.S.].OX}.OX}.OXOXOXOXOXOXOXOXOXOXOX,XpXyXqXqXeXeXrXrXrXrXrX).n ;.].].{.}.}.pXlXcXcXcX",
"cXcXcX| &.&.&.&.*.s.7.F.`.`.`.`. X X XoX~.r.'.}.}.}.}.}.}.OXOXOXOXOXOXOXOXOXOXOX#XpXyXqXqXeXeXeXrXrXrXrXT.b n.].].].{.>XkXcXcXcX",
"cXcX_ #.&.&.&.&.a.8.r.Q.Q.Q.`.`.`.`. X`.7.N.}.{.{.}.}.I.N.q.N.}.OXXXq.N.].OXOXOXOX#XpXeXqXqXqXeXeXeXrXrX;X3.n I.'.].].].aXfXcXcX",
"cXcX` #.#.#.#.&.s.7.Z.Q.Q.Q.Q.Q.Q.`.`.r.6.].{.{.{.].P.M.b.| p.}.}.6X9.| | N.OXOXOXOX7XpX7X7X7XqXqXqXeXeXeXT.b n.'.'.'.'.7XzXcXcX",
"cX$ R #.#.#.#.u.q.q.F.F.F.F.F.F.Q.Q.F.' s.{.].].{.[.~..X|.| p.}.}.rX%XD.8.E N.OXOXOXOXiX8X:X7X7X7X7XqXqXeX;X;.;.I.I.I.'.[.dXsXcX",
"cX@ { #.#.#.#.s.7.m.Z.Z.Z.Z.Z.Z.F.F.m.V P.].].].'.`.~.|.!.| p.}.}.eX%X%X~.8.E L.OX].K.XX6X:X:X:X:X7X7X7X7X8Xh.b N.I.I.I.I.yXfXcX",
"cX8 { { { { &.s.7.M.M.M.M.M.M.M.M.C.7.N P.].].].[.E.E.E.D.' q.{.{.8X.X.X.XD.| [ q.8.8.C.&X-X-X-X-X:X:X:X7X7X^.n 5.L.P.I.I.[.3XcX",
"cXB { { { { w.q.8.m.m.m.m.m.m.k.m.m.| N P.'.'.[.8XD.S.S.C.' q.{.{.8X~.~.~.!.k.t.C.E.|.%X%X%X&X&X&X-X-X-X-X:X&X;.;.P.P.P.P.L.XXcX",
"# A ~ { { { s.6.9.r.r.r.r.r.r.r.r.r.| 6 V.'.'.'.8X).b.b.v.V q.{.{.8XE.E.E.E.!.!.~.~.|.|..X.X.X.X%X%X&X&X&X&X&Xf.b V.J.J.P.P.[.(.",
"@ L ~ ~ ~ { s.| 7.9.9.9.9.9.9.9.9.9.| 1 9.I.I.I.[.yX/.k.r.V q.].].6XA.C.C.S.S.D.E.E.E.!.!.~.~.|.|..X.X.X%X%X&Xh.b b.J.J.J.J.P.5X",
"5 L ~ ~ ~ { m.' 6.6.6.6.6.6.6.6.6.6.' 6 m J.L.L.L.[.9X4XA.V 9.].[.6Xv.k.v.b.b.C.C.C.S.S.D.E.E.E.!.!.~.~.~.|..Xh.b t.H.H.H.J.P.2X",
"8 L I I I #.y.V | | | | | | | | | | | N - 6.K.K.K.L.I.*X8X/.Z.'.'.8X).R.v.y.y.k.v.v.v.b.C.C.C.S.S.D.D.E.E.!.~.C.v 4.H.V.H.H.V.3X",
"6 L L I I #.r.V ' ' ' ' ' ' ' ' ' ' ' V , + q.K.K.K.K.K.L.I.I.I.I.[.-X7X9X4XR.t.t.t.y.y.k.k.v.v.b.b.C.C.S.S.D.b.v >.V.V.V.V.H.^.",
"9 H L L L #.9.N V V V V V V V V V V V N 3 + + 6.G.J.J.K.K.K.L.L.L.L.I.I.'.*X8X4Xl.7.9.9.9.t.t.y.y.k.k.v.v.b.b.k.v ,.B.B.B.V.V.^.",
"9 H H H H #.9.6 N N m m m m m m m m m 4 3 ; O X z w.i.i.G.G.G.H.J.J.K.K.L.L.I.*X9Xe.' | | 6.6.6.7.7.9.9.9.r.y.t.v ,.B.d.B.B.B.R.",
"m S H H H  .9.2 6 1 > > > > > > > > > > > : - O . o z | *.-.-.=.-.-.-.-.-.-.-.i.H.4X:.M B Z Z A A T T T T E [ 7.x ,.d.d.d.d.B.T.",
"8 S S S S { y.2 2 : : : : : : : : : : : : : : ; - O . . O ; [ =.=.m.' $.-.=.=.=.=.d.).V M B B B Z Z A A A T T | l 4.d.a.d.d.d.T.",
"5 f f f S ~ v.6 1 : : : : : : : : : : : : : : : : ; ; - + . E =.=.c.O O z $.-.=.=.=.F.c.r M B B B Z Z A A A T ' l 9.a.u.u.u.s.Y.",
"e u t t t S M.m 1 : : : : : : : : : : : : : : : : : : : ; o E =.=.c.3 - o + [ =.=.=.-./.B r M B B B Z Z A A A V l r.&.+.+.+.*.g.",
"# y 0 0 0 t z.V 2 : : : : : : : : : : : : : : : : : : : ; o E %.=.c.4 < : O - *.=.=.%.!.:.r r M M B B B Z A A ^ x *.Y Y Y Y $.U.",
"cXy 0 0 0 0  .,.2 > : : : : : : : : : : : : : : : : : : ; o A %.%.c.3 < < : O E =.%.%.Z.2.9 r r M M B B B Z A h ( &.Y Y Y Y 6.cX",
"cX8 0 0 0 0 W k.2 1 : : : : : : : : : : 3 z ` 2.2.3 : : ; o A %.%.c.3 > < > + E =.%.%.d.:.7 9 r r M M B B B V l ,.+.Y Y Y Y 1.cX",
"cXp 0 0 0 0 u C.N 2 : : : : : : : : : ; 9.w.w.%.E.` ; : ; X A %.%.c.3 > > > : $.%.%.%.u.V 7 9 9 r r M M B B N l 8.Y U Y Y Y _ cX",
"cX) y 0 0 0 0 0.,.2 , : : : : : : : -   A O.O.O.%./.z ; ; X A @.%.c.3 : : < R %.%.%.%.$.9 7 9 9 9 r r M M B h ( #.U U U U { ) cX",
"cXcXi 0 0 0 0 S A.6 1 : : : : : : : - . - O.O.O.O.*./.2.3 X Z @.@.c.3 3 z [ %.@.@.@.%.R 4 4 7 9 9 9 r r M N h 6.~ U U U Y ] cXcX",
"cXcXp 0 0 0 0 0 z.:.2 > : : : : : : ; O   w O.O.O.O.@.M.R.2.R @.@.A.2.9.*.@.@.@.@.@.$.9 4 4 4 7 7 9 9 9 r h ^ &.U I U U I _ cXcX",
"cXcXcXy 0 0 0 0 S R.m 1 : : : : : : : - . . g O.o.o.o.o.@.%.@.O.O.%.%.@.@.@.@.@.@.@.M < < 4 4 4 7 7 9 9 m h 6.~ L U U U T cXcXcX",
"cXcXcXa 0 0 0 0 q z.e.2 , : : : : : : ; +   . g o.o.o.o.o.o.O.O.O.O.O.O.O.O.@.@.+.9 > < < < 4 4 4 7 7 9 % ( #.L I I U I / cXcXcX",
"cXcXcX) y 0 = 0 0 d R.V 2 > : : : : : : ; + .   7 X.o.o.o.o.o.o.O.O.O.O.O.O.@.R , ; > > > < < 4 4 4 7 % x 0.I L I I U A $ cXcXcX",
"cXcXcXcXa 0 = 0 q = } R.m 1 : : : : : : : ; + X   o 7 g o.o.o.o.o.o.O.O.X.A , + ; : : > > > < < 4 4 % % 6.~ L L L I I 5 cXcXcXcX",
"cXcXcXcXcXd = = q q 0 0.c.6 1 : : : : : : : ; - O .     O , g o.o.[ 1 - O o + : : : : : > > > < < 2 % ,.{ L L L L I M cXcXcXcXcX",
"cXcXcXcXcXP t = = q q t z.l.6 1 : : : : : : : : : - + O X   w ..o.e.O O - ; : : : : : : : : > > 1 % :.#.L L L L I D @ cXcXcXcXcX",
"cXcXcXcXcXcXG = = q q q u z.l.6 1 : : : : : : : : : : ; ; X w ....j.3 : : : : : : : : : : : > , % :. .H H L L L L 5 cXcXcXcXcXcX",
"cXcXcXcXcXcXcXs * = = q q u z.c.m 1 , : : : : : : : : : ; X w ....j.3 : : : : : : : : : : , , % ,. .H H H L L I i cXcXcXcXcXcXcX",
"cXcXcXcXcXcXcX! d * = = = = t 0.R.V 2 1 : : : : : : : : ; X 7 g g e.3 : : : : : : : : : , , h e.{ H H H H L L Z $ cXcXcXcXcXcXcX",
"cXcXcXcXcXcXcXcXQ u * * * = = = W R.e.6 1 , : : : : : : ; X   . . - : : : : : : : : , , % :.0.I H H H H L L C # cXcXcXcXcXcXcXcX",
"cXcXcXcXcXcXcXcXcXQ u & * * * = * d 0.R.:.6 1 1 > : : : ; + + O + ; : : : : : > , , % ` e.} H H H H H H L C # cXcXcXcXcXcXcXcXcX",
"cXcXcXcXcXcXcXcXcXcXQ d & & * * * * 0 S z.A.4.N 2 1 1 , > : : : : : > > , , 1 2 m :.j. .H S S S S H H H C # cXcXcXcXcXcXcXcXcXcX",
"cXcXcXcXcXcXcXcXcXcXcX! s * & * * * * * = f 0.A.c.4.V m 6 2 2 1 1 2 2 6 m V :.e.0.} S f f f S S S S S i $ cXcXcXcXcXcXcXcXcXcXcX",
"cXcXcXcXcXcXcXcXcXcXcXcXcXG q & & & * * * * & t S  .z.c.c.l.j.e.e.j.j.j.j.0.} S d d f f f f f f S f a cXcXcXcXcXcXcXcXcXcXcXcXcX",
"cXcXcXcXcXcXcXcXcXcXcXcXcXcXP d & & & & * * * * * * = t d f S W W S f d u u u d d d d d f f f f C e cXcXcXcXcXcXcXcXcXcXcXcXcXcX",
"cXcXcXcXcXcXcXcXcXcXcXcXcXcXcXcXK u & & & & * * * = = = q q q q q t t t u u u u u d d d d d C a cXcXcXcXcXcXcXcXcXcXcXcXcXcXcXcX",
"cXcXcXcXcXcXcXcXcXcXcXcXcXcXcXcXcX! G u * & & & * * * * = = q q q q t t t t u u u u u d s a ) cXcXcXcXcXcXcXcXcXcXcXcXcXcXcXcXcX",
"cXcXcXcXcXcXcXcXcXcXcXcXcXcXcXcXcXcXcXcXJ s t * & & & * * * = = q q q q t t t t u d C p cXcXcXcXcXcXcXcXcXcXcXcXcXcXcXcXcXcXcXcX",
"cXcXcXcXcXcXcXcXcXcXcXcXcXcXcXcXcXcXcXcXcXcX! J F d t q = * * * = = q q t u s F J ! cXcXcXcXcXcXcXcXcXcXcXcXcXcXcXcXcXcXcXcXcXcX",
"cXcXcXcXcXcXcXcXcXcXcXcXcXcXcXcXcXcXcXcXcXcXcXcXcXcXQ P K F D H S D F K P Q cXcXcXcXcXcXcXcXcXcXcXcXcXcXcXcXcXcXcXcXcXcXcXcXcXcX"
};
