/* XPM */
static char *result[] = {
/* columns rows colors chars-per-pixel */
"64 64 2 1 ",
"  c #090703",
". c #0C0904",
/* pixels */
" .....   ...  .........  ..   ..........    .....  .... ...  ...",
"    .         ..   ....      ..........     ..... ............. ",
"    .          .  ....       ..... .....    ... ...... ... ...  ",
" .. .. .....  ... ...      ....  . .....    ... ... ..  ... ... ",
" .. ........   ..  ..  .   ............... .    ..... .....   . ",
".    ..             .  ..  .. ... ........     .............   .",
"...  ..  .     ... ..  ..  ..  .  ..... ... . ... ......  .. ...",
"...  ...  ..   .......... ..  ..  . ...... ..  .  .....   ......",
".....  ..   ..  ............  ..  .  ..........    ...    ... ..",
"....    ..  ..    ....  ..........  .........      ..   ...     ",
".  .   ....       ...   ..........     ...... ..   ..  ....     ",
"       ....       ................   .    ...         ......    ",
"  ..  ....     .   ........... .  .. ....  ...       ....... ...",
"  ......     ...  ... .......   .  ......  ......     .....   ..",
".  .....  .  ..  ....  .......  ........  .......     ......    ",
"   .....          ... ........   ...  ..  ...................  .",
" ...              ..... ..  ........  ........... ........ .....",
"...   ..    ..     ..    ......  ...  ...... .... .......  .....",
"...   ...   ..     ..    ..  ... .....  .........  .  ........  ",
"...   ... ...   ....    ..   .... ....   .....     .... ..  ..  ",
".         ..   ...   .  ...  ... .......  ....   ........  ..   ",
".....     .    ..   ..   .. ...  . ....   .....   .....   ...   ",
"..  ... ..         ..    .......    ....  .. ...  .....   ...   ",
"..  .......      ....  .........    ....   .. .......... ...    ",
".....     .  .  .....  ..  .....  .... ..  .. ... .......  .. ..",
"......   ..    ......   ..... ..   .. .... .....   ......  .....",
"  ....        ......      ......      .........    .......   .. ",
"  ...         ......  .  .. ...    .. .........     .......  .. ",
"     .  ..    ....... .. .....  . ............. .. ......       ",
"    ..         . ....  ....    .. ...........      ... ..      .",
"... ..    .....  ...   ..  ....     ..........    ...    .     .",
"...        ....  .    ............ .............  ... . ..    ..",
" ...  . .   .... .    .. ...   ...   ...........   .......    ..",
".... ....    ........ ... ..   ..    ... . . ............  .    ",
"...  ....   ......... ... ..    .. .   ... ....  ..  .......  ..",
"...  ....   ...  .  .      ..   ...... ........   ..........  ..",
"... ..... .. ..        ..  ...........  . ...  .  ........... . ",
"...........  .. .....  .. ...... ..... .  ...  ...  ........... ",
"..............  .....      .  ..    ......... ....   ...... ... ",
"....... ...........      ...  ...   ... ....   ....  ..     ....",
". ....  ..............   ..   .... ...  .....  .. .  ..    .....",
".....   .......   ..... ..    ........  ...   .      ....... ...",
".........    ..      .....   .........  ...  ..      ....... .  ",
" ........   . ..  .......... ......... .........    .......     ",
" ............  .  ...   ..... ........... ........   ......     ",
"  .......      ..  ..  ...     ...... ......... ......  ........",
"   ......      ..  ..   .     ................  ......  ..  ... ",
"............   ..      ... ................     ......      .  .",
"....... ....        . .... ....... ..  ...    .....           ..",
".....    ...   .  ...  ..  .......     .....  .. .   ..      ...",
".....    .... ....... ..........     .......       .....     ...",
".....  .........    ........... ............       .............",
"...... ..........   .........   .. ........       .......... ...",
".  ... ..........    ...    .   .   ......        .........     ",
"   ..  .........     ...    .  ..     ....         ....   ....  ",
" ....    ........    ........  .....  ......      ...    ...   .",
"......    .... ...     ..  .. ........  ....     .  .......    .",
".......  ... ....      ..  ..... ..........     ..     ......  .",
".. .... ..    .         .......  ..........      .    .... .. ..",
".    .. ...  .           .....    ..  .....   ..    ..... ..   .",
"..   .......      . . .........          ..  .... ......  ...   ",
"... ..   ..      ....  ........          ..   .........   ......",
"........... .     ....   .........    .....    ........   .. ...",
" ... ...........   ... ............     .      .......    ......"
};
