/* XPM */
static char *result[] = {
/* columns rows colors chars-per-pixel */
"64 64 58 1 ",
"  c black",
". c #010100",
"X c #000101",
"o c #010101",
"O c #020101",
"+ c #030101",
"@ c #030201",
"# c #020202",
"$ c #080101",
"% c #0E0201",
"& c #190202",
"* c #200303",
"= c #230303",
"- c #280303",
"; c #290404",
": c #360404",
"> c #380404",
", c #3E0606",
"< c #400505",
"1 c #4B0606",
"2 c #520606",
"3 c #560606",
"4 c #5D0707",
"5 c #5F0707",
"6 c #5B0808",
"7 c #620707",
"8 c #650707",
"9 c #670707",
"0 c #6E0808",
"q c #7C0909",
"w c #7E0808",
"e c #820B0B",
"r c #8A0A0A",
"t c #8D0A0A",
"y c #900B0B",
"u c #940A0A",
"i c #A20B0B",
"p c #A50B0B",
"a c #A00E0E",
"s c #AB0C0C",
"d c #B30F0F",
"f c #B90D0D",
"g c #BA0D0D",
"h c #BB0D0D",
"j c #C20D0D",
"k c #C20F0F",
"l c #C30F0F",
"z c #C70E0E",
"x c #CA0E0E",
"c c #CB0E0E",
"v c #CA0F0F",
"b c #CC0E0E",
"n c #CD0F0F",
"m c #CE0E0E",
"M c #C71010",
"N c #C81010",
"B c #CC1010",
"V c None",
/* pixels */
"VVVVVVVVVVVVVVVVVVVVVVVVVVVVVVVVVVVVVVVVVVVVVVVVVVVVVVVVVVVVVVVV",
"VVVVVVVVVVVVVVVVVVVVVVVVVVVVVVVVVVVVVVVVVVVVVVVVVVVVVVVVVVVVVVVV",
"VVVVVVVVVVVVVVVVVVVVVVVVVVVVVVVVVVVVVVVVVVVVVVVVVVVVVVVVVVVVVVVV",
"VVVVVVVVVVVVVVVVVVVVVVVVVVVVVVVVVVVVVVVVVVVVVVVVVVVVVVVVVVVVVVVV",
"VVVVVVVVVVVVVVVVVVVVVVVVooX+....++o@#VVVVVVVVVVVVVVVVVVVVVVVVVVV",
"VVVVVVVVVVVVVVVVVVVVVoo.  .%====&%$  .o#VVVVVVVVVVVVVVVVVVVVVVVV",
"VVVVVVVVVVVVVVVVVVVo+ .=16ysghjfhiu81+. O#VVVVVVVVVVVVVVVVVVVVVV",
"VVVVVVVVVVVVVVVVVo+ %<thMBcbcccccmmmxaw:$ XVVVVVVVVVVVVVVVVVVVVV",
"VVVVVVVVVVVVVVVVo %1pzmMMccccccccccvVvmct;$.@VVVVVVVVVVVVVVVVVVV",
"VVVVVVVVVVVVVVVO -tcbcMMccccccccccvVvccvVvw= oVVVVVVVVVVVVVVVVVV",
"VVVVVVVVVVVVVV+.2fmccMMccccccccccvVvccvVvcms< OVVVVVVVVVVVVVVVVV",
"VVVVVVVVVVVVV++3jmccMMccccccccccvVvccvVvcccbh2 OVVVVVVVVVVVVVVVV",
"VVVVVVVVVVVV++7ccccMMccccccccccvVvccvVvccccccj2.XVVVVVVVVVVVVVVV",
"VVVVVVVVVVVX.3zcccMMccccccccccvVvccvVvccccccccz1 oVVVVVVVVVVVVVV",
"VVVVVVVVVVo <jcccMMccccccccccvVvccvVvcccccccccmf- #VVVVVVVVVVVVV",
"VVVVVVVVVV -fmccMMccccccccccvVvccvVvcccccccccccmiO.VVVVVVVVVVVVV",
"VVVVVVVVVO.rmccMMccccccccccvVvccvVvccccccccccccvV4 oVVVVVVVVVVVV",
"VVVVVVVV# 1cccMMccccccccccvVvccvVvccccccccccccvVvf- VVVVVVVVVVVV",
"VVVVVVVVO%ubcMMccccccccccvVvccvVvccccccccccccvVvcmq.oVVVVVVVVVVV",
"VVVVVVV# >zcMMccccccccccvVvccvVvccccccccccccvVvccva-.VVVVVVVVVVV",
"VVVVVVVo.qmMMcccccmczcmnVvccvVvccccccmmzccmvVvccvVn3 @VVVVVVVVVV",
"VVVVVVV.=hMMccccmhq2<<5exccvVvcccccmju5><5tdnccvVxNe%OVVVVVVVVVV",
"VVVVVVo 1MMcccccu=.    %1pnVvcccccci:$    .>pcvVxNMz: VVVVVVVVVV",
"VVVVVVo 6Bcccccw% ooVVoO -encccccct& XoVVoX &tVxNMcb5 oVVVVVVVVV",
"VVVVVVO+yccccmu%+#VVVVVVo -fccccmi&.oVVVVVVo OiNMccmr oVVVVVVVVV",
"VVVVVV.=hccccf- #VVVVVVVVo 5mcccc1 oVVVVVVVVo ;lcccmp%OVVVVVVVVV",
"VVVVVV :zcccn6.oVVVVVVVVVV.=gcccs%+VVVVVVVVVV+%sbccch&+VVVVVVVVV",
"VVVVV# <cccvV3 #VVVVVVVVVVX%umcmq oVVVVVVVVVVo qmcccz-.VVVVVVVVV",
"VVVVVo 2ccvVx1 VVVVVVVVVVVo$rmcb5 oVVVVVVVVVVo 9mcccz: VVVVVVVVV",
"VVVVVo 5cvVxN* #VVVVVVVVVVo$umcc3 @VVVVVVVVVV@ 8mcccM* VVVVVVVVV",
"VVVVVo 9nVxNB9 @VVVVVVVVVV+%sbcB6$oVVVVVVVVVVo.rmccMM> VVVVVVVVV",
"VVVVVo 3VxNMci%+VVVVVVVVVo >zcMMh=.VVVVVVVVVV.=hccMMz> VVVVVVVVV",
"VVVVVo ,nNMccc2 oVVVVVVVV+%tmMMcbw XVVVVVVVVX wccMMcz> VVVVVVVVV",
"VVVVVo 9BMcccmf- oVVVVVo+.8cMMcccj1 OVVVVVVO <zcMMccz< VVVVVVVVV",
"VVVVVo ,Bcccccna:  OoX+ %8zMMccccch2$ +oo+ $2gcMMcccc> VVVVVVVVV",
"VVVVVo 4cccccvVnjw-+$.&>tcMMccccccczr:%..+:wzcMMccccb< VVVVVVVVV",
"VVVVVo 9ccccvVvccndieyszmMMcccccccccmziutpzbcMMcccccv; VVVVVVVVV",
"VVVVVo 5mccvVvccvVxNBcbcMMccccccccccccmmmmccMMcccccvV; VVVVVVVVV",
"VVVVVo 9mcvVvccvVxNMcbcMMccccccccccccccccccMMcccccvVx< VVVVVVVVV",
"VVVVVo 5cvVvccvVxNMcbcMMccccccccccccccccccMMcccccvVvc> VVVVVVVVV",
"VVVVVo 9nVvccvVxNMcbcMMccccccccccccccccccMMcccccvVvcb< VVVVVVVVV",
"VVVVVo 3VvccvVxNMcbcMMccccccccccccccccbcMMcccccvVvccc> VVVVVVVVV",
"VVVVVo ,nccvVxNMcbcMMccccccccccccccccccMMcccccvVvcccz> VVVVVVVVV",
"VVVVVo 9mcvVxNMcbcMMccccccccccccccccccMMcccccvVvccccz< VVVVVVVVV",
"VVVVVo 5cvVxNMcbcMMccccccccccccccccccMMcccccvVvcccccc> VVVVVVVVV",
"VVVVVo 9nVxNMcbcMMccccccccccccccccccMMcbcccvVvccccccb< VVVVVVVVV",
"VVVVVo 3VxNMcbcMMccccccccccccccccccMMcccccvVvcccccccc> VVVVVVVVV",
"VVVVVo ,nNMcbcMMccccccccccccccccccMMcccccvVvccccccccz> VVVVVVVVV",
"VVVVVo 9BMcbcMBcccccccccccccccmccMMcccccvVvcccbcccccz< VVVVVVVVV",
"VVVVVo ,BcbcMkscccccccccccccczizMMcccccvVvccczscccccc> VVVVVVVVV",
"VVVVVo 4cbcMk0&wccccccccccccz4&7NcccccvVvcccz9&wccccb< VVVVVVVVV",
"VVVVVo 9bcMk0$ %wccccccccccz4. +wccccvVvcccz9$ %qcccv; VVVVVVVVV",
"VVVVVo 5mMk0$.o.%qccccccccz4..o %wccvVvcccz9$.o.%wcvV; VVVVVVVVV",
"VVVVVo 9Bk0$.oVo %wccccccz4..#Vo %wxVvcccz9$.oVo %qVx< VVVVVVVVV",
"VVVVVo ,M0$.oVVVo %wccccz4..#VVVo %6xcccz9$.oVVVo +qM@ VVVVVVVVV",
"VVVVVo 40$.oVVVVVo %wccz4..#VVVVVo %wccz8$.oVVVVVo +Vo VVVVVVVVV",
"VVVVVo &$.oVVVVVVVo %wz4..#VVVVVVVo %wz4..oVVVVVVVo OX VVVVVVVVV",
"VVVVVo  .oVVVVVVVVVo %>..#VVVVVVVVVo %>..oVVVVVVVVVo   VVVVVVVVV",
"VVVVVo .oVVVVVVVVVVVo  .#VVVVVVVVVVVo  .oVVVVVVVVVVVo  VVVVVVVVV",
"VVVVVo oVVVVVVVVVVVVVo.#VVVVVVVVVVVVVo.oVVVVVVVVVVVVVo VVVVVVVVV",
"VVVVVooVVVVVVVVVVVVVVVVVVVVVVVVVVVVVVVVVVVVVVVVVVVVVVV@VVVVVVVVV",
"VVVVVVVVVVVVVVVVVVVVVVVVVVVVVVVVVVVVVVVVVVVVVVVVVVVVVVVVVVVVVVVV",
"VVVVVVVVVVVVVVVVVVVVVVVVVVVVVVVVVVVVVVVVVVVVVVVVVVVVVVVVVVVVVVVV",
"VVVVVVVVVVVVVVVVVVVVVVVVVVVVVVVVVVVVVVVVVVVVVVVVVVVVVVVVVVVVVVVV"
};
