/* XPM */
static char *result[] = {
/* columns rows colors chars-per-pixel */
"64 64 42 1 ",
"  c #000007",
". c #2B2A06",
"X c #7E7B05",
"o c #6F6F6F",
"O c gray44",
"+ c gray45",
"@ c #777777",
"# c gray48",
"$ c #7F7F7E",
"% c #B3AE04",
"& c #B8B304",
"* c #C6BC02",
"= c #C7BD02",
"- c #C9BF02",
"; c #CCC302",
": c #D4CB02",
"> c #D5CD02",
", c #DAD302",
"< c #DFD702",
"1 c #E1D902",
"2 c #E5DE02",
"3 c #EBE403",
"4 c #ECE503",
"5 c #EDE503",
"6 c #EFE803",
"7 c #F0E902",
"8 c #F0EC01",
"9 c #F1ED01",
"0 c #F6F400",
"q c #FAF800",
"w c #FEFD00",
"e c yellow",
"r c #FCFC03",
"t c #AFAF5C",
"y c #87877E",
"u c #A9A962",
"i c #A5A568",
"p c #868685",
"a c gray53",
"s c #87878A",
"d c #898988",
"f c None",
/* pixels */
"ffffffffffffffffffffffffffffffffffffffffffffffffffffffffffffffff",
"ffffffffffffffffffffffffffffffffffffffffffffffffffffffffffffffff",
"ffffffffffffffffffffffffffff*ff4ff*fffffffffffffffffffffffffffff",
"fffffffffffffffffffffffffff*=*q74*=-ffffffffffffffffffffffffffff",
"ffffffffffffffffffffffffff-==;373;=*ffffffffffffffffffffffffffff",
"fffffffffffffffffffffffff52,;,7971;:55ffffffffffffffffffffffffff",
"fffffffffffffffffffffffff47737;X;73776ffffffffffffffffffffffffff",
"ffffffffffffffffffffffffff7777X X97778ffffffffffffffffffffffffff",
"fffffffffffffffffffffffe8>3777%.&7773<8effffffffffffffffffffffff",
"ffffffffffffffffffffeeew,=17771X27773;,eeeefffffffffffffffffffff",
"ffffffffffffffffffeeeeee2=:222212222,;2eeeeeefffffffffffffffffff",
"ffffffffffffffffeeeeeeeee71:;;===;;:19eeeeeeeeefffffffffffffffff",
"fffffffffffffffeeeeeeeeeeeew0977790weeeeeeeeeeeeffffffffffffffff",
"ffffffffffffffeeeeeeeeeeeeeweeeeeeeweeeeeeeeeeeeefffffffffffffff",
"fffffffffffffeeeeeeeeeeeweefffffffffeeweeeeeeeeeeeffffffffffffff",
"ffffffffffffeeeeeeeeeeeefffffffffffffffeeeeeeeeeewefffffffffffff",
"ffffffffffffweeeeeeeeeffffffffffffffffffeeeeeeeeeewfffffffffffff",
"fffffffffffeeeeeeeeeefffffffffffffffffffffeeeeeeeeeeffffffffffff",
"fffffffffffeeeeeeeeefffffffffffffffffffffffeeeeeeeeeffffffffffff",
"ffffffffffeeeeeeeeefffffffffffffffffffffffffeeeeeeeeefffffffffff",
"ffffffffffeeeeeeeefffffffffffffffffffffffffffeeeeeeeefffffffffff",
"ffffffffffeeeeeeeefffffffffffffffffffffffffffeeeeeeewfffffffffff",
"fffffffffeeeeeeeefffffffffffffffffffffffffffffeeeeeeefffffffffff",
"fffffffffqeeeeeefffffffffffffffffffffffffffffffeeeeeeeffffffffff",
"fffffffffeeeeeeefffffffffffffffffffffffffffffffeeeeeeqffffffffff",
"fffffffffeeeeeeqfffffffffffffffffffffffffffffffeeeeeeeffffffffff",
"fffffffffeeeeeefffffffffffffffffffffffffffffffffeeeeeeffffffffff",
"fffffffffeeeeeefffffffffffffffffffffffffffffffffeeeeeeffffffffff",
"fffffffffeeeeeefffffffffffffffffffffffffffffffffeeeeeeffffffffff",
"fffffffffeeeeeefffffffffffffffffffffffffffffffffeeeeeeffffffffff",
"fffffffffeeeeeefffffffffffffffffffffffffffffffffeeeeeeffffffffff",
"fffffffffeeeeeefffffffffffffffffffffffffffffffffeeeeeeffffffffff",
"fffffffffeeeeeefffffffffffffffffffffffffffffffffeeeeeeffffffffff",
"fffffffffeeeeeefffffffffffffffffffffffffffffffffeeeeeeffffffffff",
"fffffffffeeeeeefffffffffffffffffffffffffffffffffeeeeeeffffffffff",
"fffffffffeeeeeefffffffffffffffffffffffffffffffffeeeeeeffffffffff",
"fffffffffeeeeeefffffffffffffffffffffffffffffffffeeeeeeffffffffff",
"fffffffffeeeeeefffffffffffffffffffffffffffffffffeeeeeeffffffffff",
"fffffffffeeeeeefffffffffffffffffffffffffffffffffeeeeeeffffffffff",
"fffffffffeeeeeefffffffffffffffffffffffffffffffffeeeeeeffffffffff",
"fffffffffeeeeeefffffffffffffffffffffffffffffffffeeeeeeffffffffff",
"fffffffffeeeeeefffffffffffffffffffffffffffffffffeeeeeeffffffffff",
"fffffffffeeeeeefffffffffffffffffffffffffffffffffeeeeeeffffffffff",
"fffffffffeeeeeefffffffffffffffffffffffffffffffffeeeeeeffffffffff",
"fffffffffeeeeeefffffffffffffffffffffffffffffffffeeeeeeffffffffff",
"fffffffffeeeeeefffffffffffffffffffffffffffffffffeeeeeeffffffffff",
"fffffffffeeeeeefffffffffffffffffffffffffffffffffeeeeeeffffffffff",
"fffffffffeeeeeefffffffffffffffffffffffffffffffffeeeeeeffffffffff",
"fffffffffeeeeeefffffffffffffffffffffffffffffffffeeeeeeffffffffff",
"fffffffffeeeeeefffffffffffffffffffffffffffffffffeeeeeeffffffffff",
"fffffffffeeeeeefffffffffffffffffffffffffffffffffeeeeeeffffffffff",
"fffffffffeeeeeefffffffffffffffffffffffffffffffffeeeeeeffffffffff",
"fffffffffeeeeeefffffffffffffffffffffffffffffffffeeeeeeffffffffff",
"fffffffffeeeeeefffffffffffffffffffffffffffffffffeeeeeeffffffffff",
"fffffffffeeeeeefffffffffffffffffffffffffffffffffeeeeeeffffffffff",
"fffffffffeeeeeefffffffffffffffffffffffffffffffffeeeeeeffffffffff",
"fffffffffeeeeeefffffffffffffffffffffffffffffffffeeeeeeffffffffff",
"fffffffffewwwwefffffffffffffffffffffffffffffffffrwwwweffffffffff",
"ffffdddddittttuy##OOOOooOOOOOOOOOOOOOOoooOOOO##yuttttidddddfffff",
"ffffdddddssssssdaap$$$@@@++++++++++++@@@$$$ppaddssssssdddddfffff",
"ffffdddddddddddddddddddaaaappppppppaaaaddddddddddddddddddddfffff",
"ffffdddddddddddddddddddddddddddddddddddddddddddddddddddddddfffff",
"ffffdddddddddddddddddddddddddddddddddddddddddddddddddddddddfffff",
"ffffdddddddddddddddddddddddddddddddddddddddddddddddddddddddfffff"
};
