/* XPM */
static char *result[] = {
/* columns rows colors chars-per-pixel */
"64 64 19 1 ",
"  c #57635C",
". c #74734D",
"X c #455A65",
"o c #91833F",
"O c #BB9B2A",
"+ c #A89132",
"@ c #D2A81E",
"# c #E7B413",
"$ c #FFC107",
"% c #FBC009",
"& c #FBC00B",
"* c #FBC10B",
"= c #FDC108",
"- c #FCC109",
"; c #FDC109",
": c #FCC10A",
"> c #FCC10B",
", c #FBC10C",
"< c None",
/* pixels */
"<<<<<<<<<<<<<<<<<<<<<<<<<<<<<<<<<<<<<<<<<<<<<<<<<<<<<<<<<<<<<<<<",
"<<<<<<<<<<<<<<<<<<<<<<<<<<<<<<<<<<<<<<<<<<<<<<<<<<<<<<<<<<<<<<<<",
"<<<<<<<<<<<<<<<<<<<<<<<<<<<<<<<<<<<<<<<<<<<<<<<<<<<<<<<<<<<<<<<<",
"<<<<<<<<<<<<<<<<<<<<<<<<<<<<<<<<<<<<<<<<<<<<<<<<<<<<<<<<<<<<<<<<",
"<<<<<<<<<<<<<<<<<<<<<<<<<<<<<<<<<<<<<<<<<<<<<<<<<<<<<<<<<<<<<<<<",
"<<<<<<<<<<<<<<<<<<<<<<<<<<<<<<<<<<<<<<<<<<<<<<<<<<<<<<<<<<<<<<<<",
"<<<<<<<<<<<<<<<<<<<<<<<<<<<<<<<*>;-;;-;>&<<<<<<<<<<<<<<<<<<<<<<<",
"<<<<<<<<<<<<<<<<<<<<<<<<<<<*-=$$$$$$$$$$$$=;,<<<<<<<<<<<<<<<<<<<",
"<<<<<<<<<<<<<<<<<<<<<<<<<:=$$$$$$$$$$$$$%$$$$=><<<<<<<<<<<<<<<<<",
"<<<<<<<<<<<<<<<<<<<<<<<;%$$$$$$$$$$$$$$$$$$%$$$=><<<<<<<<<<<<<<<",
"<<<<<<<<<<<<<<<<<<<<<*=$$$$$$$$$%$$$$%$$$$$$$$$$$=,<<<<<<<<<<<<<",
"<<<<<<<<<<<<<<<<<<<<-$$$$$$$$$%$$$$$$$$$$$$$$$$$%$$><<<<<<<<<<<<",
"<<<<<<<<<<<<<<<<<<<=$$$$$$%$$$$$$$$#+ooO%$$$%$$$$$$$-<<<<<<<<<<<",
"<<<<<<<<<<<<<<<<<<=$$$$$$$$$%$$$$$@.XXXX.#$$$$$$$$$$$;<<<<<<<<<<",
"<<<<<<<<<<<<<<<<<=$$$$%$$$$$$$$%$#.XXXXXXo%$$$$$$$$$$$<<<<<<<<<<",
"<<<<<<<<<<<<<<<<=$$$$$$$$$%$$$$$$OXXXXXXX #$$%$$%$$$%*<<<<<<<<<<",
"<<<<<<<<<<<<<<<;$$$$%$$$%$$$$%$$$+XXXXXXXX@$$$$$$$$%&<<<<<<<<<<<",
"<<<<<<<<<<<<<<>$$$$$$$$$$$$$$$$$$+XXXXXXX @$$$$$$$=,<<<<<<<<<<<<",
"<<<<<<<<<<<<<<$$$$%$$$%$$$$%$$$$$@ XXXXXX.%$$$$$$=<<<<<<<<<<<<<<",
"<<<<<<<<<<<<<;$%$$$$$$$$$$$$$$$$$$+XXXXX @$$$$$$=<<<<<<<<<<<<<<<",
"<<<<<<<<<<<<,$$$$$$$%$$$%$$$$%$$$$%O.  .@$$$$%$=<<<<<<<<<<<<<<<<",
"<<<<<<<<<<<<;$$$$%$$$$$$$$%$$$$$%$$$###%$$$$$$;<<<<<<<<<<<<<<<<<",
"<<<<<<<<<<<<$$$$$$$$$$%$$$$$$$$$$$$$$$$$$$%$$;<<<<<<<<<<<<<<<<<<",
"<<<<<<<<<<<:$$$%$$$$%$$$$$$$$$%$$$$$$$$$$$$$;<<<<<<<<<<<<<<<<<<<",
"<<<<<<<<<<<=$$$$$$%$$$$$%$$%$$$$%$$$$$%$$$$-<<<<<<<<<<<<<<<<<<<<",
"<<<<<<<<<<<$$$$$$$$$$$$$$$$$$$$$$$$%$$$$$%-<<<<<<<<<<<<<<<<<<<<<",
"<<<<<<<<<<*$$%$$%$$$$%$$$$$$$%$$$$$$$$$$$;<<<<<<<<<<<<<<<<<<<<<<",
"<<<<<<<<<<;$$$$$$$$$$$$$%$$%$$$$$%$$$$%$:<<<<<<<<<<<<<<<<<<<<<<<",
"<<<<<<<<<<;$$$$$$%$$$$$$$$$$$$$$$$$%$$$><<<<<<<<<<<<<<<<<<<<<<<<",
"<<<<<<<<<<=$$$%$$$$%$$%$$$$$$$$%$$$$$%><<<<<<<<<<<<<<<<<<<<<<<<<",
"<<<<<<<<<<%$$$$$$$$$$$$$%$$%$$$$$$$$$*<<<<<<<<<<<<<<<<<<<<<<<<<<",
"<<<<<<<<<<%$$$$$%$$$$$$$$$$$$$%$$$%$*<<<<<<<<<<<<<<<<<<<<<<<<<<<",
"<<<<<<<<<<%$$%$$$$$%$$%$$$$$$$$$$$$$*<<<<<<<<<<<<<<<<<<<<<<<<<<<",
"<<<<<<<<<<%$$$$$$$$$$$$$$%$$%$$$$%$$$*<<<<<<<<<<<<<<<<<<<<<<<<<<",
"<<<<<<<<<<=$$$$%$$$$$$$$$$$$$$$%$$$$$$><<<<<<<<<<<<<<<<<<<<<<<<<",
"<<<<<<<<<<=$$$$$$%$$%$$%$$$$$$$$$$$%$$$><<<<<<<<<<<<<<<<<<<<<<<<",
"<<<<<<<<<<;$$%$$$$$$$$$$$$%$$%$$$$$$$$$$:<<<<<<<<<<<<<<<<<<<<<<<",
"<<<<<<<<<<>$$$$$$$$$$$$$$$$$$$$$$%$$$%$$$;<<<<<<<<<<<<<<<<<<<<<<",
"<<<<<<<<<<,$$$$%$$%$$%$$%$$$$$$$$$$$$$$$$$-<<<<<<<<<<<<<<<<<<<<<",
"<<<<<<<<<<<%$$$$$$$$$$$$$$$$%$$%$$$%$$$$%$$-<<<<<<<<<<<<<<<<<<<<",
"<<<<<<<<<<<-$$$$$$$$%$$$$$%$$$$$$$$$$$$$$$$$;<<<<<<<<<<<<<<<<<<<",
"<<<<<<<<<<<*$$%$$%$$$$$%$$$$$$$$$%$$$$%$$$$$$;<<<<<<<<<<<<<<<<<<",
"<<<<<<<<<<<<=$$$$$$$$$$$$$$$%$$$$$$%$$$$%$$$$$=<<<<<<<<<<<<<<<<<",
"<<<<<<<<<<<<>$$$$$$$$%$$$%$$$$$%$$$$$$$$$$$%$$$=<<<<<<<<<<<<<<<<",
"<<<<<<<<<<<<<=$$%$$%$$$$$$$$$$$$$$$$$%$$$$$$$$%$=<<<<<<<<<<<<<<<",
"<<<<<<<<<<<<<*$$$$$$$$$%$$$$%$$$%$$%$$$$$%$$$$$$$=<<<<<<<<<<<<<<",
"<<<<<<<<<<<<<<;$$$$$$$$$$$%$$$$$$$$$$$$%$$$$%$$$$$%,<<<<<<<<<<<<",
"<<<<<<<<<<<<<<<%$$%$$%$$$$$$$$%$$$$$$$$$$$$$$$$$$$$%&<<<<<<<<<<<",
"<<<<<<<<<<<<<<<*$$$$$$$$%$$$$$$$%$$%$$$$$$%$$$%$$$$$$*<<<<<<<<<<",
"<<<<<<<<<<<<<<<<>$$$$$$$$$$$%$$$$$$$$%$$%$$$$$$$%$$$$$<<<<<<<<<<",
"<<<<<<<<<<<<<<<<<>$$%$$$$$$$$$$$$$$$$$$$$$$$%$$$$$$%$;<<<<<<<<<<",
"<<<<<<<<<<<<<<<<<<>$$$$$%$$%$$$$%$$%$$$$$$$$$$$$$$$$;<<<<<<<<<<<",
"<<<<<<<<<<<<<<<<<<<&=$$$$$$$$%$$$$$$$$%$$%$$$$%$$$$:<<<<<<<<<<<<",
"<<<<<<<<<<<<<<<<<<<<<;$%$$$$$$$$$$$$$$$$$$$%$$$$$=&<<<<<<<<<<<<<",
"<<<<<<<<<<<<<<<<<<<<<<*=$$%$$$$%$$%$$$$$$$$$$$$%:<<<<<<<<<<<<<<<",
"<<<<<<<<<<<<<<<<<<<<<<<<*=$$$$$$$$$$$%$$%$$$$%:<<<<<<<<<<<<<<<<<",
"<<<<<<<<<<<<<<<<<<<<<<<<<<,;=$$$$$$$$$$$$$%;*<<<<<<<<<<<<<<<<<<<",
"<<<<<<<<<<<<<<<<<<<<<<<<<<<<<<*;;=====;->,<<<<<<<<<<<<<<<<<<<<<<",
"<<<<<<<<<<<<<<<<<<<<<<<<<<<<<<<<<<<<<<<<<<<<<<<<<<<<<<<<<<<<<<<<",
"<<<<<<<<<<<<<<<<<<<<<<<<<<<<<<<<<<<<<<<<<<<<<<<<<<<<<<<<<<<<<<<<",
"<<<<<<<<<<<<<<<<<<<<<<<<<<<<<<<<<<<<<<<<<<<<<<<<<<<<<<<<<<<<<<<<",
"<<<<<<<<<<<<<<<<<<<<<<<<<<<<<<<<<<<<<<<<<<<<<<<<<<<<<<<<<<<<<<<<",
"<<<<<<<<<<<<<<<<<<<<<<<<<<<<<<<<<<<<<<<<<<<<<<<<<<<<<<<<<<<<<<<<",
"<<<<<<<<<<<<<<<<<<<<<<<<<<<<<<<<<<<<<<<<<<<<<<<<<<<<<<<<<<<<<<<<"
};
