/* XPM */
static char *result[] = {
/* columns rows colors chars-per-pixel */
"64 64 22 1 ",
"  c #5E6856",
". c #50605E",
"X c #777649",
"o c #435965",
"O c #8A813F",
"+ c #988937",
"@ c #B0962B",
"# c #A59031",
"$ c #CCA61C",
"% c #DCAF14",
"& c #C2A022",
"* c #FBC103",
"= c #FFC200",
"- c #FDC202",
"; c #FDC203",
": c #FBC205",
"> c #FAC206",
", c #FBC206",
"< c #FAC207",
"1 c #FCC204",
"2 c #FCC205",
"3 c None",
/* pixels */
"3333333333333333333333333333333333333333333333333333333333333333",
"3333333333333333333333333333333333333333333333333333333333333333",
"3333333333333333333333333333333333333333333333333333333333333333",
"3333333333333333333333333333333333333333333333333333333333333333",
"3333333333333333333333333333333333333333333333333333333333333333",
"3333333333333333333333333333333333333333333333333333333333333333",
"333333333333333333333333333333<:1;;;;;;;2,3333333333333333333333",
"333333333333333333333333333,;*-------*-*---;2<333333333333333333",
"33333333333333333333333332*---------=---------;,3333333333333333",
"333333333333333333333332------=============-----;>33333333333333",
"333333333333333333333,*----===================----13333333333333",
"333333333333333333331----=======================--=;>33333333333",
"3333333333333333333;---===========================---:3333333333",
"333333333333333333;---=============================---:333333333",
"33333333333333333;--================================---:33333333",
"3333333333333333;--======================%@+#%-=======-->3333333",
"333333333333333;--=====================-& ooo.@*======--*3333333",
"33333333333333:--======================% ooooo.$=======--;333333",
"33333333333333---======================#oooooooO-=======--,33333",
"3333333333333;--=======================OoooooooX*========-;33333",
"333333333333<--========================+oooooooX*========--:3333",
"333333333333;--========================$.oooooo@==========-;3333",
"333333333333--=========================*#.ooooO*==========-->333",
"333333333332--==========================*&OXX@*==========---1333",
"33333333333;-=============================***=-========----=*333",
"33333333333--=============================---=======-----====<33",
"3333333333,--=====================================----=======:33",
"33333333332-===================================-----=========133",
"3333333333;-=================================----============;33",
"3333333333;-==============================-----==============;33",
"3333333333*-===========================------================*33",
"3333333333*-=========================-----===================*33",
"3333333333*-========================---======================*33",
"3333333333*-========================--=======================*33",
"3333333333;-=========================-=======================;33",
"3333333333;-=========================--======================;33",
"33333333331-=========================--======================233",
"3333333333:-==========================--=====================,33",
"3333333333<--=========================--====================-333",
"33333333333*-==========================--===================;333",
"333333333331-==========================--===================2333",
"33333333333>--==========================--=================-3333",
"333333333333;-==========================--=================;3333",
"333333333333:-===========================--===============-<3333",
"3333333333333;-==========================--===============;33333",
"3333333333333,-===========================--=============-333333",
"33333333333333;-==========================--=============:333333",
"333333333333333*-=========================---==========-;3333333",
"333333333333333>-==========================--==========;33333333",
"3333333333333333:--========================--=========;333333333",
"33333333333333333:*-========================--=======;3333333333",
"333333333333333333,*-=======================--=====-;33333333333",
"3333333333333333333>;-=======================--====1333333333333",
"3333333333333333333331-======================--==*,3333333333333",
"3333333333333333333333>;-=====================--2333333333333333",
"333333333333333333333333,;--=================*233333333333333333",
"33333333333333333333333333<2;--==========-*;,3333333333333333333",
"333333333333333333333333333333,2;;;;;;;1:<3333333333333333333333",
"3333333333333333333333333333333333333333333333333333333333333333",
"3333333333333333333333333333333333333333333333333333333333333333",
"3333333333333333333333333333333333333333333333333333333333333333",
"3333333333333333333333333333333333333333333333333333333333333333",
"3333333333333333333333333333333333333333333333333333333333333333",
"3333333333333333333333333333333333333333333333333333333333333333"
};
