/* XPM */
static char *result[] = {
/* columns rows colors chars-per-pixel */
"64 64 13 1 ",
"  c #141617",
". c #232A2D",
"X c #2A3337",
"o c #2D363A",
"O c #0D0F0F",
"+ c #272F32",
"@ c #303A3F",
"# c #1E2326",
"$ c #181C1D",
"% c #34444B",
"& c #3C5059",
"* c #445D67",
"= c #4D6C78",
/* pixels */
"         OOOOOOOOOO  OOOOOOOOO $$$    OOOOOOOOO$#$$$$   OOOOOOOO",
"+XX+++++++++++.# OO#.#####$$ O#X....#..####$OOOo@@@@ooXX+++..$OO",
"o@ooooooooXXXXX.#OO#+...++++. .o++++++......#OO@@o@o@@@@@@@@@@#O",
"@o++++++++++++..#OO.+++X+XXoo#.@XXXoXXXXXXXX.OO@+......+++XXXo+O",
"@X....+.......... O+X+oooooo@#+%XXoooooooooo+ O%+########...... ",
"%X...........++++$OX@+ooo@@@@.X%oo@o@@@@@@@@o$O%X########.#.#.# ",
"%%....++++XXXXXXX#O@&XXXXoooo.o&@@@@ooooooooo$O&%.####......... ",
"&=&&&%%%%@@@ooooo.O@=&%%@@@@o+@=%@@@@@@@@@@@@#O&*X.#..#....#.#. ",
".%%%%%%%@@@oXX++.$O#%%%%@@oX+#@==**&&%%%@@@@@. &==*&&&%@@ooXX++#",
"#.########$##$$ OO   O O      #%&%%%%%@ooXX+.$O.%%%%%%%@@@ooX+.$",
"+oooooooXoooXXX.$O  $  OOOOOOOO$X+++....##### OOO O OOO OOOOOOOO",
"X@XXXXXXXX+X+++.#  #.#####$$ OO$o++++++++X++++$O       O OOOOOOO",
"oo..+++++.+..+...  .+...++++. O$X............+#O$#$$$$$    OOOOO",
"@X..............+$ .X.+++XXoo# #o..............O#X.......#..## O",
"@@#.....+++++XXXX# +X+oooooo@. #@++++++++++++++ .@+++++++++...#O",
"%&@ooooXoXXXooXXX. X@+ooo@@@@+ #%oXXXoXXXXXXXXX$.@XXooooXXXXXX. ",
"@=****&&&%%%@@@@o. @&XXXXoooo+ #&oooooooXXXXXXX$+%XoooooooooooX$",
"$####$#$$#$######$ @=&%%@@@@o+$.*oXXoXXXXX+++++$+&oo@@@@@@@@@@o#",
"+#####$$ OO      $$.%&%%%@@oX.$.*@XXXXXXXXXXXXX#+*@@@o@o@oooooo#",
"o.....+++#O O      $     $   $ .=*@oooXoooooooo.X=&%@@@@@@@@@@@.",
"o.++++XXoX$$OOOOOOOOOOOOOOOOOOO#==*&&&%%%%%@@@@XX===**&&%%%%@@@X",
"@.Xooooooo##      O OO OOOOOOOO$@%%%%@%@@@@@@XX.#XoXXXX++....##$",
"%XXoo@@@@o.#  $$$$   $       OO $$$$$$$$$$$$$$$.+...###$$$$  OOO",
"*@XooXoooo.+ $$ $ $  $$$  $$  O$$$$$$$$$$$$   $XX+++++++X++++#OO",
"**%%@@@@ooX@$ $$$     $   $ $ O#.#####$$$$   OO++.........+.+. O",
"@&%%%@@oX++%$              $ OO.@...........#$OX+............. O",
"OOOOOO O  #%#$ $    $$$   $$$ O.@+XXX+X++++++. o+....+++++++++$O",
" OOOOOOOOO$&+   $   $$$    $$ O.%XXXoooooXXoo+$@@XXoXXXXXXXXXo#O",
".####$$  O$&%#$     $ $$ $$$$ O.%oooooooo@oo@X#%@ooooXoXXXoXXo.O",
"X....+...$$&&%@X+..###$$$$$ $ O+&@@@@@o@o@@@oo#%%XXoooooXXX+++#O",
"X.++++XXo+$@%%%%%%%@@ooooX+..#$X*%@@o@@@@@ooo@.&%++XXXXXXX+X+X.O",
"@.XXoooooo$     OO O           .=*%%@@@@o@@@@@+&*@ooooooooooooX ",
"%+Xoo@@@@o$$$ O O OOOOOOOOOOOOO *==***&&%%%%@@X*=*&%%%@@@@@@@@o$",
"&@Xooooooo$##   $        O OOOOO+++++......###$@&&&&&&%%%%%@@oX$",
"*&%@@@oooo### $$$$$   $    $  OO####$#$$$$$$$  OO    O  OOOOOOOO",
"%&&%%%@@oX#.+ $$$ $$   $$  $$$OO@oXXXXXoXXXXXX+# O $#$    OOOOOO",
"  O  O OOOO+@$             $$$OO@ooooooXXXXXXX+.$O .+.....##$OOO",
"..####$$ OO+@$  $     $    $  O @X++++++++++....#  .+.+++++XX$OO",
"X........#O+%# $ $  $$$$   $$$ O%+...............  .X+XXXXooo#OO",
"X.++++XXoX +&.       $$$$  $$$ O%+.#.......++++X+$ +o+oooo@@@.OO",
"@+Xooooooo$+&%X.#$$$$$    $ $  O&%+++++XXXXXXXXXX$ o%Xooo@ooo+OO",
"%XXoo@@@@@#.&&&&%%%%@oXX++.##$$ &=**&&&&%%%@@@@@o# @*oXXXXooo+OO",
"&%Xooooooo# #.#.#..#.#.######$$$+@@oooXXX++.....#$ o=*&&%%%@@+ O",
"**%@@@@ooo.    #.####$$$$$  OO +#######$$$$ OO $   $.....###$$OO",
"o&&%%%@@oX#    .X...........#$ @.+..........#O      O OOOOOOOOOO",
"   $       OOOO.@+XX+++++++++# @XXXXXXXXX++++ #....#########$ OO",
"X......#####$$O.@XXXoooooXXoo.$%XXXoooooooooX$.@oXooooooooXXX+#O",
"@+++.+.+...... .%ooooooooo@oo+#%@ooooo@@@@@@o#+@XXXXXXXXX++++.# ",
"@oXXoXXXXXXXX+#+&o@@o@o@o@@@oo.&@@@@o@ooooooo.+o.+.++....+.....$",
"%@XXoooooooooo#X*@@@@@@@@@oooo.*&@@@@@@@@@@@@+X@...............#",
"%%oo@o@@@@@@@o+o=*%%@@@@@@@@@@+==*&%%%@@@@@@@+@%#.....+++++XXXX#",
"&%@@@oooooooooXX==****&&%%%%@@+&***&&&%%%%%@@X@*@ooooooooooooXX+",
"&*%@@@@@@@@@@@o$###########.X+.###$$$$$  OO   +=****&&&%%%@@@@o+",
"&==*&&%%@%@@@@@#     O O O .XXX+++++++++.$OO O $$$$ $        OOO",
"+%%%%%%%@@@@@oX#  OO O OO O.+....+.+.+++++  #   O OOOO OOOOOOOOO",
"OOOOOOOOOO$oXX++..####$$ OO.+.............$ #   $ $ $        OOO",
".##$$$$ OO$%@@@@@@@@@@@@o.O.X............+#$. $$$$$$  $$$  $ $ O",
"X...+....$$%+++XXXXoooo@@@#+@++XXXXXXXXXXX.#o$$$$$     $    $$OO",
"o.+++++Xo+#%#.####.....+++#X%ooooXXXXXXXXX+#%$             $$  O",
"@+XXXooooo.%#########.#.#.$o%ooooooooXXX+X+#%#  $   $ $$  $ $ OO",
"%+Xoo@@@@@+*+######.#..#..#@&++XXXX+++++++.#&.   $   $$     $$ O",
"&@XoooooooX*%####.........#@*@XXooooooooooX.&@$       $$$$ $$$ O",
"*&@oooooooX=*%@ooX++....#.#%=*%@@oooooooooXX&&%X.###$#$$ $$ $  O",
"&=**&&%%@@X*====***&&&%%%@X@====***&&&&&%%%o&&&&&&%%%@@@ooX+.#$ "
};
